<svg xmlns="http://www.w3.org/2000/svg" version="1.1" xmlns:xlink="http://www.w3.org/1999/xlink" xmlns:svgjs="http://svgjs.com/svgjs" width="512" height="512" x="0" y="0" viewBox="0 0 24 24" style="enable-background:new 0 0 512 512" xml:space="preserve" class=""><g><g fill="#000" fill-rule="evenodd" clip-rule="evenodd"><path d="M6 7a1 1 0 0 1 1 1v11a1 1 0 0 0 1 1h8a1 1 0 0 0 1-1V8a1 1 0 1 1 2 0v11a3 3 0 0 1-3 3H8a3 3 0 0 1-3-3V8a1 1 0 0 1 1-1z" fill="#000000" data-original="#000000" class=""></path><path d="M10 8a1 1 0 0 1 1 1v8a1 1 0 1 1-2 0V9a1 1 0 0 1 1-1zM14 8a1 1 0 0 1 1 1v8a1 1 0 1 1-2 0V9a1 1 0 0 1 1-1zM4 5a1 1 0 0 1 1-1h14a1 1 0 1 1 0 2H5a1 1 0 0 1-1-1zM8 3a1 1 0 0 1 1-1h6a1 1 0 1 1 0 2H9a1 1 0 0 1-1-1z" fill="#000000" data-original="#000000" class=""></path></g></g></svg>