<svg xmlns="http://www.w3.org/2000/svg" version="1.1" xmlns:xlink="http://www.w3.org/1999/xlink" xmlns:svgjs="http://svgjs.com/svgjs" width="512" height="512" x="0" y="0" viewBox="0 0 121 121" style="enable-background:new 0 0 512 512" xml:space="preserve" fill="#ffffff"><g><path d="M54.5 121h12c3.3 0 6-2.7 6-6V72.5H115c3.3 0 6-2.7 6-6v-12c0-3.3-2.7-6-6-6H72.5V6c0-3.3-2.7-6-6-6h-12c-3.3 0-6 2.7-6 6v42.5H6c-3.3 0-6 2.7-6 6v12c0 3.3 2.7 6 6 6h42.5V115c0 3.3 2.7 6 6 6z" fill="#000000" data-original="#000000" class=""></path></g></svg>