<svg width="141" height="170" viewBox="0 0 141 170" fill="none" xmlns="http://www.w3.org/2000/svg">
<path d="M127.607 47.2188H13.3897C11.1435 47.2188 10.1371 46.0587 10.1371 43.9706C10.1371 31.5896 28.7721 9.73291 70.4993 9.73291C111.841 9.73291 130.863 31.5896 130.863 43.9706C130.863 46.0587 129.855 47.2188 127.607 47.2188Z" fill="#FF8732"/>
<path d="M82.7834 77.0965C88.8658 77.0965 92.7021 73.2276 92.7021 67.5795C92.7021 63.9825 90.5298 61.5057 86.1924 61.5057H84.954C82.6664 61.5057 80.8842 62.5904 80.8842 65.0273C80.8842 67.1938 82.7831 68.2386 84.2166 68.2386C84.9526 68.2386 85.4195 68.4706 85.4195 69.0129C85.4195 69.7075 84.6067 70.173 83.6755 70.173C80.7687 70.173 78.7931 68.1216 78.7931 64.2914C78.7931 60.0368 81.5066 58.491 83.5977 58.491C86.1543 58.491 86.5811 59.8062 88.3636 59.8062C90.4175 59.8062 91.8127 58.1038 91.8127 56.3245C91.8127 55.0093 91.2305 54.0044 90.3396 53.3069C88.7126 52.1069 86.4276 51.2188 83.0183 51.2188C77.0111 51.2188 71.162 55.1645 71.162 64.2943C71.159 73.034 77.0099 77.0965 82.7834 77.0965ZM14.6686 76.8645H20.1335C25.2866 76.8645 28.424 73.4215 28.424 69.1267C28.424 65.6835 26.3699 64.0978 25.9058 63.7106C25.7137 63.5554 25.5201 63.4017 25.5201 63.2466C25.5201 63.0545 25.6354 62.9761 25.8305 62.7441C26.5649 61.8929 27.3011 60.5392 27.3011 58.5649C27.3011 53.9246 24.1623 51.4463 19.2808 51.4463H14.6701C11.6096 51.4463 10.1377 53.2286 10.1377 55.6255V72.6853C10.1377 75.0852 11.6096 76.8645 14.6686 76.8645ZM16.9563 58.1023C16.9563 57.5999 17.2668 57.2112 17.9242 57.2112H18.4282C20.0936 57.2112 20.599 58.3713 20.599 59.3792C20.599 60.3072 20.0963 61.6225 18.4282 61.6225H17.9257C17.2666 61.6225 16.956 61.2368 16.956 60.7328L16.9563 58.1023ZM16.9563 67.1553C16.9563 66.6529 17.2668 66.2642 17.9242 66.2642H18.622C20.4825 66.2642 21.0234 67.5011 21.0234 68.6243C21.0234 69.6321 20.4811 71.0626 18.622 71.0626H17.9259C17.2668 71.0626 16.9563 70.6755 16.9563 70.1715V67.1553ZM115.832 77.0566C118.311 77.0566 119.666 75.199 119.666 72.8789V68.778C119.666 68.2753 119.9 68.0435 120.287 68.0435C120.751 68.0435 120.905 68.3139 120.982 68.778C121.332 70.7508 122.261 73.4197 123.306 74.7749C124.625 76.5172 125.863 77.0598 127.104 77.0598C129.117 77.0598 130.862 75.4724 130.862 73.4981C130.862 72.1828 130.32 71.2149 129.622 70.3267C128.304 68.6642 127.492 67.5814 126.989 66.2273C126.872 65.9169 126.949 65.645 127.3 65.3758C128.501 64.4478 129.896 62.3966 129.896 59.1484C129.896 54.2347 125.827 51.449 120.905 51.449H116.529C113.468 51.449 111.997 53.2268 111.997 55.6268V72.8816C111.997 75.2017 113.352 77.0564 115.833 77.0564L115.832 77.0566ZM119.241 58.7614C119.241 58.259 119.551 57.8688 120.209 57.8688H120.751C122.38 57.8688 122.882 59.0304 122.882 60.0368C122.882 61.0047 122.38 62.2801 120.751 62.2801H120.209C119.55 62.2801 119.241 61.8959 119.241 61.3904V58.76V58.7614ZM106.376 76.8645C108.549 76.8645 110.253 75.5877 110.253 73.2663C110.253 70.9829 108.547 69.7063 106.378 69.7063H102.891C102.233 69.7063 101.922 69.3206 101.922 68.8166V68.0807C101.922 67.5782 102.233 67.1911 102.892 67.1911H105.565C107.426 67.1911 108.898 66.0694 108.898 64.0951C108.898 62.1237 107.426 61.0006 105.565 61.0006H102.891C102.233 61.0006 101.923 60.6134 101.923 60.1094V59.4902C101.923 58.9878 102.233 58.6006 102.893 58.6006H106.378C108.548 58.6006 110.253 57.3238 110.253 55.0036C110.253 52.719 108.548 51.4421 106.378 51.4421H99.0562C95.9974 51.4421 94.5238 53.2214 94.5238 55.6214V72.6813C94.5238 75.0796 95.9959 76.8603 99.0562 76.8603H106.378V76.865L106.376 76.8645ZM39.8149 77.0566C46.0911 77.0566 49.4235 73.303 49.4235 68.5859V55.5472C49.4235 53.2271 48.0684 51.368 45.5874 51.368C43.1077 51.368 41.7525 53.2271 41.7525 55.5472V68.1588C41.7525 69.0854 41.2102 70.1686 39.8151 70.1686C38.4201 70.1686 37.9531 69.0854 37.9531 68.1588V55.5472C37.9531 53.2271 36.5595 51.368 34.0785 51.368C31.599 51.368 30.2437 53.2271 30.2437 55.5472V68.5844C30.2454 73.3047 33.5394 77.0554 39.8154 77.0554L39.8149 77.0566ZM67.0138 77.0566C69.0285 77.0566 70.7736 75.4709 70.7736 73.4966C70.7736 72.1813 70.2312 71.2134 69.5337 70.3252C68.4106 68.8548 67.4027 67.578 66.9002 66.2258C66.7835 65.9155 66.8606 65.6436 67.2108 65.3731C68.4123 64.4465 69.8073 62.3954 69.8073 59.1457C69.8073 54.232 65.7375 51.4463 60.8164 51.4463H56.4362C53.3771 51.4463 51.9038 53.2256 51.9038 55.6255V72.8803C51.9038 75.2005 53.2606 77.0598 55.7401 77.0598C58.2199 77.0598 59.5765 75.2005 59.5765 72.8803V68.7809C59.5765 68.2785 59.8083 68.045 60.1957 68.045C60.6612 68.045 60.8149 68.3154 60.8918 68.7809C61.2408 70.7523 62.1698 73.4212 63.2163 74.7778C64.534 76.5157 65.7724 77.0566 67.0138 77.0566ZM60.6592 62.2786H60.1154C59.4563 62.2786 59.1475 61.8929 59.1475 61.389V58.76C59.1475 58.2575 59.4578 57.8688 60.1154 57.8688H60.6578C62.2863 57.8688 62.7888 59.0304 62.7888 60.0368C62.7888 61.0018 62.2863 62.2786 60.6578 62.2786H60.6592Z" fill="#CC2624"/>
<path d="M26.7557 133.573C25.6288 133.573 24.7223 133.23 24.0364 132.544C23.3994 131.858 23.0809 130.976 23.0809 129.898C23.0809 129.359 23.2524 128.502 23.5954 127.326C24.0364 125.562 24.3549 124.019 24.5508 122.696C24.7958 121.373 24.9673 119.535 25.0653 117.183C25.2123 113.852 25.2858 110.863 25.2858 108.217C25.2858 105.032 25.2123 101.872 25.0653 98.7358C25.0163 97.8539 24.8938 97.2169 24.6978 96.8249C24.5018 96.433 24.1834 96.237 23.7424 96.237C23.2524 96.237 22.8849 96.482 22.6399 96.9719C22.3949 97.4129 22.199 98.0989 22.052 99.0298C21.807 100.304 21.219 101.284 20.288 101.97C19.3571 102.656 18.1811 102.999 16.7602 102.999C15.0943 102.999 13.6979 102.533 12.5709 101.602C11.444 100.622 10.8805 99.2503 10.8805 97.4864C10.8805 96.9964 10.9785 96.0655 11.1745 94.6935C11.4685 92.8316 11.6155 91.2392 11.6155 89.9163C11.6155 87.9564 11.8359 86.4374 12.2769 85.3595C12.7669 84.2325 13.5999 83.4241 14.7758 82.9341C16.0008 82.3951 17.7157 82.1256 19.9206 82.1256H49.4662C51.6711 82.1256 53.3615 82.3951 54.5374 82.9341C55.7624 83.4241 56.5953 84.2325 57.0363 85.3595C57.5263 86.4374 57.7713 87.9564 57.7713 89.9163C57.7713 91.2392 57.9183 92.8316 58.2123 94.6935C58.4082 96.0655 58.5062 96.9964 58.5062 97.4864C58.5062 99.2503 57.9428 100.622 56.8158 101.602C55.6889 102.533 54.2924 102.999 52.6265 102.999C51.2546 102.999 50.0786 102.656 49.0987 101.97C48.1677 101.284 47.5798 100.304 47.3348 99.0298C47.1878 98.0989 46.9918 97.4129 46.7468 96.9719C46.5018 96.482 46.1343 96.237 45.6444 96.237C45.2034 96.237 44.8849 96.433 44.6889 96.8249C44.4929 97.2169 44.3704 97.8539 44.3214 98.7358C44.1744 101.872 44.1009 105.032 44.1009 108.217C44.1009 110.863 44.1744 113.852 44.3214 117.183C44.4194 119.535 44.5664 121.373 44.7624 122.696C45.0074 124.019 45.3504 125.562 45.7913 127.326C46.1343 128.502 46.3058 129.359 46.3058 129.898C46.3058 130.976 45.9628 131.858 45.2769 132.544C44.6399 133.23 43.7579 133.573 42.631 133.573H26.7557Z" fill="#CC2624"/>
<path d="M64.3906 133.573C61.6467 133.573 60.2747 132.299 60.2747 129.751C60.2747 128.918 60.4952 127.718 60.9362 126.15C61.4262 124.533 61.7447 122.402 61.8917 119.756C62.0387 117.11 62.1122 113.141 62.1122 107.849C62.1122 102.705 62.0142 98.7603 61.8182 96.0165C61.6712 93.2236 61.3772 91.0677 60.9362 89.5488C60.4952 87.9809 60.2747 86.7804 60.2747 85.9475C60.2747 83.3996 61.6467 82.1256 64.3906 82.1256H78.7959C81.5397 82.1256 82.9117 83.3996 82.9117 85.9475C82.9117 86.7804 82.6912 87.9809 82.2502 89.5488C81.8092 91.0677 81.4907 93.2236 81.2948 96.0165C81.1478 98.7603 81.0743 102.705 81.0743 107.849C81.0743 113.141 81.1478 117.11 81.2948 119.756C81.4417 122.402 81.7602 124.533 82.2502 126.15C82.6912 127.718 82.9117 128.918 82.9117 129.751C82.9117 132.299 81.5397 133.573 78.7959 133.573H64.3906Z" fill="#CC2624"/>
<path d="M108.585 134.602C103.93 134.602 99.7163 133.5 95.9435 131.295C92.2197 129.09 89.2798 125.979 87.1239 121.961C85.017 117.943 83.9636 113.313 83.9636 108.07C83.9636 102.974 84.968 98.3929 86.977 94.3261C89.0349 90.2102 91.8032 86.9764 95.2821 84.6245C98.8099 82.2726 102.705 81.0967 106.968 81.0967C108.585 81.0967 109.981 81.2192 111.157 81.4642C112.333 81.7092 113.509 82.1256 114.685 82.7136C115.469 83.0566 116.106 83.2281 116.596 83.2281C117.233 83.2281 117.723 83.0076 118.066 82.5666C118.801 81.6847 119.928 81.2437 121.447 81.2437C122.721 81.2437 123.823 81.5867 124.754 82.2726C125.685 82.9586 126.151 83.9385 126.151 85.2125C126.151 89.3283 126.469 92.7826 127.106 95.5755C127.204 96.0655 127.253 96.4575 127.253 96.7514C127.253 98.4174 126.518 99.8628 125.048 101.088C123.578 102.313 121.912 102.925 120.05 102.925C118.923 102.925 117.87 102.656 116.89 102.117C115.91 101.578 115.077 100.745 114.391 99.6178C113.607 98.2949 112.799 97.3149 111.966 96.6779C111.182 96.041 110.202 95.7225 109.026 95.7225C107.213 95.7225 105.768 96.4085 104.69 97.7804C103.612 99.1523 103.073 100.965 103.073 103.219C103.073 105.718 103.538 107.996 104.469 110.054C105.4 112.063 106.699 113.656 108.364 114.832C110.03 115.959 111.868 116.522 113.877 116.522C116.327 116.522 118.654 115.371 120.859 113.068C122.035 111.843 123.358 111.23 124.828 111.23C126.249 111.23 127.474 111.794 128.502 112.921C129.58 114.048 130.119 115.469 130.119 117.183C130.119 118.016 129.972 118.874 129.678 119.756C128.796 122.549 127.351 125.072 125.342 127.326C123.382 129.531 120.957 131.295 118.066 132.618C115.175 133.941 112.015 134.602 108.585 134.602Z" fill="#CC2624"/>
<path d="M70.5003 160.267C94.4039 160.267 111.685 158.642 121.758 152.956C127.802 149.551 130.864 144.91 130.862 141.581C130.862 139.687 129.854 138.602 127.608 138.602H13.3905C11.1459 138.602 10.1378 139.687 10.1378 141.581C10.1378 144.91 13.1969 149.552 19.2443 152.956C29.3155 158.642 46.5969 160.267 70.5003 160.267Z" fill="#FF8732"/>
</svg>
